HIERARCHY
ROOT Hips
{
 OFFSET 0.000000 0.000000 0.000000
 CHANNELS 6 Xposition Yposition Zposition Yrotation Xrotation Zrotation
 JOINT Chest
 {
  OFFSET 0.000000 9.585900 0.002600
  CHANNELS 3 Yrotation Xrotation Zrotation
  JOINT Chest2
  {
   OFFSET 0.000000 9.601200 -0.005300
   CHANNELS 3 Yrotation Xrotation Zrotation
   JOINT Chest3
   {
    OFFSET 0.000000 9.561800 0.000000
    CHANNELS 3 Yrotation Xrotation Zrotation
    JOINT Chest4
    {
     OFFSET 0.000000 9.552100 0.000000
     CHANNELS 3 Yrotation Xrotation Zrotation
     JOINT Neck
     {
      OFFSET 0.000000 14.453000 0.000000
      CHANNELS 3 Yrotation Xrotation Zrotation
      JOINT Head
      {
       OFFSET 0.000000 8.936500 -0.011300
       CHANNELS 3 Yrotation Xrotation Zrotation
       End Site
       {
        OFFSET 0.000000 17.073600 -0.006000
       }
      }
     }
     JOINT RightCollar
     {
      OFFSET -2.921100 9.558500 0.000000
      CHANNELS 3 Yrotation Xrotation Zrotation
      JOINT RightShoulder
      {
       OFFSET -13.519700 0.000000 0.000000
       CHANNELS 3 Yrotation Xrotation Zrotation
       JOINT RightElbow
       {
        OFFSET 0.000000 -29.696600 0.000000
        CHANNELS 3 Yrotation Xrotation Zrotation
        JOINT RightWrist
        {
         OFFSET 0.000000 -24.004700 0.000000
         CHANNELS 3 Yrotation Xrotation Zrotation
         End Site
         {
          OFFSET 0.000000 -17.728500 0.000000
         }
        }
       }
      }
     }
     JOINT LeftCollar
     {
      OFFSET 2.921100 9.558500 0.000000
      CHANNELS 3 Yrotation Xrotation Zrotation
      JOINT LeftShoulder
      {
       OFFSET 13.519700 0.000000 0.000000
       CHANNELS 3 Yrotation Xrotation Zrotation
       JOINT LeftElbow
       {
        OFFSET 0.000000 -29.696600 0.000000
        CHANNELS 3 Yrotation Xrotation Zrotation
        JOINT LeftWrist
        {
         OFFSET 0.000000 -24.004700 0.000000
         CHANNELS 3 Yrotation Xrotation Zrotation
         End Site
         {
          OFFSET 0.000000 -17.728500 0.000000
         }
        }
       }
      }
     }
    }
   }
  }
 }
 JOINT RightHip
 {
  OFFSET -7.771700 -0.012900 -0.001300
  CHANNELS 3 Yrotation Xrotation Zrotation
  JOINT RightKnee
  {
   OFFSET 0.000000 -40.869800 0.001200
   CHANNELS 3 Yrotation Xrotation Zrotation
   JOINT RightAnkle
   {
    OFFSET 0.000000 -39.717900 0.002100
    CHANNELS 3 Yrotation Xrotation Zrotation
    JOINT RightToe
    {
     OFFSET 0.000000 -4.965400 11.033500
     CHANNELS 3 Yrotation Xrotation Zrotation
     End Site
     {
      OFFSET 0.000000 -1.423100 5.872300
     }
    }
   }
  }
 }
 JOINT LeftHip
 {
  OFFSET 7.771700 -0.012900 -0.001300
  CHANNELS 3 Yrotation Xrotation Zrotation
  JOINT LeftKnee
  {
   OFFSET 0.000000 -40.869800 0.001200
   CHANNELS 3 Yrotation Xrotation Zrotation
   JOINT LeftAnkle
   {
    OFFSET 0.000000 -39.717900 0.002100
    CHANNELS 3 Yrotation Xrotation Zrotation
    JOINT LeftToe
    {
     OFFSET 0.000000 -4.965400 11.033500
     CHANNELS 3 Yrotation Xrotation Zrotation
     End Site
     {
      OFFSET 0.000000 -1.423100 5.872300
     }
    }
   }
  }
 }
}
MOTION
Frames: 7
Frame Time: 0.008333
0.000000 85.388000 0.000000 0.000000 -5.767877 0.000000 0.000000 11.653817 0.000000 0.000000 -5.885947 0.000000 0.000000 -0.000000 0.000000 0.000000 -0.000000 0.000000 0.000000 12.528835 0.000000 0.000000 0.711642 0.000000 0.000000 -0.000000 0.000000 0.000000 0.000000 -90.000000 0.000000 -2.309062 0.000000 0.000000 2.309062 0.000000 0.000000 -0.000000 0.000000 0.000000 -0.000000 90.000000 0.000000 -2.309062 0.000000 0.000000 2.309062 0.000000 0.000000 8.520406 0.000000 0.000000 1.905762 0.000000 -0.000000 -4.658285 0.000000 0.000000 -0.000000 0.000000 0.000000 8.520406 0.000000 0.000000 1.905762 0.000000 -0.000000 -4.658285 0.000000 0.000000 -0.000000 0.000000
-239.579407 57.428634 -82.871469 164.364256 -8.569667 1.007690 2.102008 5.859911 0.953970 0.109093 0.240792 0.005557 0.134187 0.430436 -0.010227 2.235848 5.917071 0.099902 3.333697 14.910167 -2.090164 7.167531 -7.868357 -5.201154 2.557899 3.673147 -1.634831 -1.221006 -7.821921 -3.517842 -49.958331 -77.048379 68.218723 -9.617136 -2.507056 -34.605988 -3.994247 5.598672 -1.481596 11.590838 -11.170683 6.786870 39.356589 -55.167811 -69.565762 6.549567 -8.180681 11.864102 -7.211796 -64.087638 0.310971 -37.925645 72.692552 -40.368789 -3.296178 -7.216516 1.981085 -1.301279 0.981529 -0.302222 -6.448104 -65.541624 15.671484 45.130658 63.399347 39.318555 -17.586775 -9.009646 2.158794 0.995863 -0.894546 0.027353
-239.587471 57.422758 -82.877548 164.341264 -8.569229 1.010319 2.179163 5.847259 0.984194 0.075657 0.250123 -0.010987 0.183059 0.429191 0.012044 2.204182 5.926486 0.089308 3.370133 14.923522 -2.133070 7.043428 -7.873016 -5.256546 2.583349 3.783180 -1.494766 -1.248547 -7.860982 -3.486676 -51.002921 -77.100001 69.643441 -9.646820 -2.467268 -34.751250 -3.989318 5.653644 -1.464259 11.678188 -10.640740 6.681141 39.241873 -55.437667 -69.778983 6.497326 -8.065384 11.726426 -6.993411 -64.081089 0.252557 -38.056337 72.634561 -40.610674 -3.293366 -7.200626 2.121500 -1.387029 0.982673 -0.339045 -6.703953 -65.524956 15.801784 45.231720 63.350504 39.493362 -17.599440 -9.012866 2.092680 1.063986 -0.910501 0.057627
-239.597558 57.415926 -82.883964 164.323170 -8.561619 1.015359 2.201898 5.838314 0.985389 0.092672 0.246516 -0.000271 0.171741 0.433715 0.003986 2.226985 5.930055 0.100421 3.349396 14.935510 -2.152823 6.979622 -7.861337 -5.297087 2.595996 3.895513 -1.340784 -1.269993 -7.908287 -3.485337 -51.987290 -77.200947 70.982656 -9.650034 -2.407426 -34.846081 -3.917142 5.809791 -1.406450 11.756057 -10.175004 6.465407 39.174337 -55.729761 -70.036517 6.441086 -7.943391 11.584546 -6.755142 -64.084468 0.167948 -38.186620 72.582080 -40.841904 -3.311145 -7.179810 2.284735 -1.445951 0.978073 -0.397155 -6.961595 -65.514539 15.931111 45.315736 63.308971 39.643466 -17.607513 -9.014724 2.032405 1.114843 -0.923243 0.085924
-239.608170 57.408498 -82.891143 164.302025 -8.551771 1.018991 2.235694 5.825075 0.992465 0.094347 0.247875 0.000343 0.165928 0.435906 0.000981 2.298528 5.949682 0.146746 3.261096 14.939029 -2.195989 6.918707 -7.840990 -5.321476 2.541442 3.991478 -1.204672 -1.284181 -7.956382 -3.513206 -52.954413 -77.351175 72.274522 -9.626615 -2.322429 -34.867844 -3.896560 5.952889 -1.379607 11.861523 -9.693544 6.207080 39.172397 -56.029058 -70.349058 6.386427 -7.821104 11.443969 -6.496217 -64.091380 0.066206 -38.316012 72.534649 -41.059684 -3.340448 -7.156020 2.440838 -1.485498 0.949322 -0.506486 -7.221093 -65.507165 16.069633 45.392031 63.276071 39.780593 -17.609180 -9.010939 1.974570 1.158165 -0.937985 0.114334
-239.617668 57.400802 -82.899606 164.264542 -8.545575 1.017683 2.261122 5.821577 1.003737 0.104927 0.247517 0.000594 0.168626 0.437933 0.002200 2.318285 5.953638 0.157542 3.227471 14.958290 -2.206282 6.858254 -7.807109 -5.326927 2.531465 4.098811 -1.030976 -1.300108 -8.002766 -3.565856 -53.942618 -77.543551 73.563266 -9.575020 -2.204129 -34.810928 -3.834729 6.080946 -1.343614 12.004193 -9.169682 5.933698 39.230933 -56.320970 -70.714561 6.339307 -7.709815 11.311723 -6.220549 -64.094501 -0.035148 -38.444433 72.491202 -41.263811 -3.374430 -7.133077 2.561909 -1.540595 0.948423 -0.516554 -7.480331 -65.496038 16.230024 45.471732 63.252222 39.914381 -17.574595 -9.007151 1.875705 1.161144 -0.953530 0.181294
-239.626410 57.392922 -82.908905 164.192770 -8.540141 1.018040 2.330185 5.817552 1.013766 0.097403 0.249807 0.001669 0.171107 0.439492 0.003431 2.334107 5.951641 0.161711 3.198754 14.984839 -2.201673 6.795150 -7.756309 -5.312125 2.524118 4.212116 -0.837812 -1.329623 -8.048121 -3.639001 -54.963515 -77.766581 74.873013 -9.496556 -2.049046 -34.686785 -3.757918 6.216814 -1.298993 12.168888 -8.634931 5.634814 39.343957 -56.596129 -71.130212 6.301943 -7.610814 11.191150 -5.912177 -64.096999 -0.135624 -38.572354 72.450035 -41.457422 -3.415897 -7.112118 2.674438 -1.590636 0.960322 -0.496728 -7.710280 -65.484399 16.404800 45.552733 63.240118 40.042236 -17.573736 -8.992664 1.850457 1.195275 -0.976902 0.183241
